# xmcd CD database file
#
# Track frame offsets:
#	150
#	34262
#	64425
#	97510
#	136872
#	227127
#
# Disc length: 3099 seconds
#
# Revision: 0
# Processed by: cddbd v1.5.2PL0 Copyright (c) Steve Scherf et al.
# Submitted via: CDex 1.51
#
DISCID=470c1906
DTITLE=Ramon Valle - piano...
DYEAR=1996
DGENRE=Jazz
TTITLE0=Estela
TTITLE1=Levitando
TTITLE2=Fabula de los pasos gigantes
TTITLE3=Pensando en ti
TTITLE4=Y si volviera
TTITLE5=Tema de cancion a Daulema
EXTD=YEAR: 1996
EXTT0=
EXTT1=
EXTT2=
EXTT3=
EXTT4=
EXTT5=
PLAYORDER=
